<svg width="1280" height="960" viewBox="0 0 1280 960" fill="none" xmlns="http://www.w3.org/2000/svg">
  <rect width="1280" height="960" rx="48" fill="#F6EEEE"/>
  <rect x="48" y="48" width="1184" height="864" rx="36" fill="#FFF9F8" stroke="#D9B1B8" stroke-width="4"/>
  <circle cx="332" cy="312" r="92" fill="#F1DDE0"/>
  <circle cx="640" cy="280" r="110" fill="#F1DDE0"/>
  <circle cx="948" cy="312" r="92" fill="#F1DDE0"/>
  <path d="M200 640C200 547.216 275.216 472 368 472H404C496.784 472 572 547.216 572 640V724H200V640Z" fill="#7F1325"/>
  <path d="M488 624C488 508.021 582.021 414 698 414H742C857.979 414 952 508.021 952 624V724H488V624Z" fill="#B01C2E"/>
  <path d="M708 640C708 547.216 783.216 472 876 472H912C1004.78 472 1080 547.216 1080 640V724H708V640Z" fill="#8F2A39"/>
  <rect x="120" y="96" width="332" height="54" rx="27" fill="#5E0F1D"/>
  <text x="152" y="131" fill="#FFF6F5" font-family="Avenir Next, Segoe UI, sans-serif" font-size="28" font-weight="600">
    Team Photo Placeholder
  </text>
  <text x="146" y="812" fill="#5C343A" font-family="Avenir Next, Segoe UI, sans-serif" font-size="34" font-weight="600">
    Replace this artwork with the Computational Robotics group photograph.
  </text>
  <text x="146" y="860" fill="#856369" font-family="Avenir Next, Segoe UI, sans-serif" font-size="24">
    Recommended ratio: landscape image with enough space for desktop and mobile crops.
  </text>
</svg>
